<svg width="214" height="43" viewBox="0 0 214 43" fill="none" xmlns="http://www.w3.org/2000/svg">
<g clip-path="url(#clip0)">
<path d="M92.9988 24.2854V31.8H88.6043V10.4719H96.9246C98.5262 10.4719 99.9324 10.7648 101.143 11.3508C102.364 11.9367 103.302 12.7717 103.956 13.8557C104.61 14.9299 104.937 16.1555 104.937 17.5324C104.937 19.6223 104.22 21.2727 102.784 22.4836C101.358 23.6848 99.3807 24.2854 96.8514 24.2854H92.9988ZM92.9988 20.7258H96.9246C98.0867 20.7258 98.9705 20.4523 99.576 19.9055C100.191 19.3586 100.499 18.5773 100.499 17.5617C100.499 16.5168 100.191 15.6721 99.576 15.0275C98.9607 14.383 98.1111 14.051 97.0271 14.0314H92.9988V20.7258ZM106.827 23.7287C106.827 22.1564 107.13 20.7551 107.735 19.5246C108.341 18.2941 109.21 17.342 110.343 16.6682C111.485 15.9943 112.808 15.6574 114.312 15.6574C116.451 15.6574 118.194 16.3117 119.542 17.6203C120.899 18.9289 121.656 20.7063 121.812 22.9523L121.842 24.0363C121.842 26.468 121.163 28.4211 119.805 29.8957C118.448 31.3605 116.627 32.093 114.342 32.093C112.056 32.093 110.23 31.3605 108.863 29.8957C107.506 28.4309 106.827 26.4387 106.827 23.9191V23.7287ZM111.06 24.0363C111.06 25.5402 111.344 26.6926 111.91 27.4934C112.476 28.2844 113.287 28.6799 114.342 28.6799C115.367 28.6799 116.168 28.2893 116.744 27.508C117.32 26.717 117.608 25.4572 117.608 23.7287C117.608 22.2541 117.32 21.1115 116.744 20.301C116.168 19.4904 115.357 19.0852 114.312 19.0852C113.277 19.0852 112.476 19.4904 111.91 20.301C111.344 21.1018 111.06 22.3469 111.06 24.0363ZM123.834 23.758C123.834 21.3264 124.41 19.3684 125.562 17.884C126.724 16.3996 128.287 15.6574 130.25 15.6574C131.988 15.6574 133.341 16.2531 134.307 17.4445L134.483 15.9504H138.321V31.2727C138.321 32.6594 138.004 33.8654 137.369 34.8908C136.744 35.9162 135.86 36.6975 134.718 37.2346C133.575 37.7717 132.237 38.0402 130.704 38.0402C129.542 38.0402 128.409 37.8059 127.305 37.3371C126.202 36.8781 125.367 36.2824 124.801 35.55L126.676 32.9719C127.73 34.1535 129.01 34.7443 130.513 34.7443C131.637 34.7443 132.511 34.4416 133.136 33.8361C133.761 33.2404 134.073 32.3908 134.073 31.2873V30.4377C133.096 31.5412 131.812 32.093 130.221 32.093C128.316 32.093 126.773 31.3508 125.592 29.8664C124.42 28.3723 123.834 26.3947 123.834 23.9338V23.758ZM128.067 24.0656C128.067 25.5012 128.355 26.6291 128.931 27.4494C129.508 28.26 130.299 28.6652 131.304 28.6652C132.594 28.6652 133.516 28.1818 134.073 27.215V20.55C133.507 19.5832 132.594 19.0998 131.334 19.0998C130.318 19.0998 129.517 19.5148 128.931 20.3449C128.355 21.175 128.067 22.4152 128.067 24.0656ZM140.929 23.7287C140.929 22.1564 141.231 20.7551 141.837 19.5246C142.442 18.2941 143.311 17.342 144.444 16.6682C145.587 15.9943 146.91 15.6574 148.414 15.6574C150.553 15.6574 152.296 16.3117 153.643 17.6203C155.001 18.9289 155.758 20.7063 155.914 22.9523L155.943 24.0363C155.943 26.468 155.264 28.4211 153.907 29.8957C152.55 31.3605 150.728 32.093 148.443 32.093C146.158 32.093 144.332 31.3605 142.965 29.8957C141.607 28.4309 140.929 26.4387 140.929 23.9191V23.7287ZM145.162 24.0363C145.162 25.5402 145.445 26.6926 146.012 27.4934C146.578 28.2844 147.388 28.6799 148.443 28.6799C149.469 28.6799 150.269 28.2893 150.846 27.508C151.422 26.717 151.71 25.4572 151.71 23.7287C151.71 22.2541 151.422 21.1115 150.846 20.301C150.269 19.4904 149.459 19.0852 148.414 19.0852C147.379 19.0852 146.578 19.4904 146.012 20.301C145.445 21.1018 145.162 22.3469 145.162 24.0363ZM157.891 23.758C157.891 21.2873 158.443 19.3195 159.547 17.8547C160.66 16.3898 162.179 15.6574 164.102 15.6574C165.645 15.6574 166.92 16.2336 167.926 17.3859V9.3H172.174V31.8H168.35L168.145 30.1154C167.091 31.4338 165.733 32.093 164.073 32.093C162.208 32.093 160.709 31.3605 159.576 29.8957C158.453 28.4211 157.891 26.3752 157.891 23.758ZM162.125 24.0656C162.125 25.55 162.384 26.6877 162.901 27.4787C163.419 28.2697 164.171 28.6652 165.157 28.6652C166.466 28.6652 167.388 28.1135 167.926 27.01V20.7551C167.398 19.6516 166.485 19.0998 165.186 19.0998C163.145 19.0998 162.125 20.7551 162.125 24.0656ZM184.947 30.1887C183.902 31.4582 182.457 32.093 180.611 32.093C178.912 32.093 177.613 31.6047 176.715 30.6281C175.826 29.6516 175.372 28.2209 175.352 26.3361V15.9504H179.586V26.1897C179.586 27.84 180.338 28.6652 181.842 28.6652C183.277 28.6652 184.263 28.1672 184.801 27.1711V15.9504H189.049V31.8H185.064L184.947 30.1887ZM200.826 27.4201C200.826 26.9025 200.567 26.4973 200.05 26.2043C199.542 25.9016 198.721 25.633 197.589 25.3986C193.819 24.6076 191.934 23.0061 191.934 20.5939C191.934 19.1877 192.515 18.0158 193.678 17.0783C194.849 16.1311 196.378 15.6574 198.262 15.6574C200.274 15.6574 201.881 16.1311 203.082 17.0783C204.293 18.0256 204.898 19.2561 204.898 20.7697H200.665C200.665 20.1643 200.47 19.6662 200.079 19.2756C199.688 18.8752 199.078 18.675 198.248 18.675C197.535 18.675 196.983 18.8361 196.593 19.1584C196.202 19.4807 196.007 19.8908 196.007 20.3889C196.007 20.8576 196.226 21.2385 196.666 21.5314C197.115 21.8147 197.867 22.0637 198.922 22.2785C199.976 22.4836 200.865 22.718 201.588 22.9816C203.824 23.802 204.942 25.2229 204.942 27.2443C204.942 28.6897 204.322 29.8615 203.082 30.76C201.842 31.6486 200.24 32.093 198.277 32.093C196.949 32.093 195.767 31.8586 194.732 31.3898C193.707 30.9113 192.901 30.2619 192.315 29.4416C191.729 28.6115 191.436 27.718 191.436 26.7609H195.45C195.489 27.5129 195.767 28.0891 196.285 28.4895C196.803 28.8898 197.496 29.09 198.365 29.09C199.176 29.09 199.786 28.9387 200.196 28.6359C200.616 28.3234 200.826 27.9182 200.826 27.4201Z" fill="#432C85"/>
<rect y="-1" width="43" height="44" fill="#003EFF"/>
<g clip-path="url(#clip1)">
<path d="M30.0239 18.625C29.2564 18.6222 28.5225 18.7578 27.8472 19.0067L24.2059 13.3845C24.105 13.2287 23.9642 13.1001 23.797 13.011C23.6297 12.9218 23.4415 12.875 23.2501 12.875H20.2501C19.8358 12.875 19.5001 13.1968 19.5001 13.5938V14.3125C19.5001 14.7095 19.8358 15.0312 20.2501 15.0312H22.6242L23.3225 16.1094H18.0001V15.3906C18.0001 14.9937 17.6643 14.6719 17.2501 14.6719H13.1505C12.5204 14.6719 11.989 15.166 12.0003 15.7696C12.0112 16.3556 12.5102 16.8281 13.1251 16.8281H15.4091L14.0302 18.9628C13.4005 18.7458 12.7222 18.6267 12.015 18.625C8.72317 18.6174 6.01932 21.1861 6.0001 24.3407C5.98065 27.5321 8.67446 30.125 12.0001 30.125C14.7958 30.125 17.145 28.2925 17.8111 25.8125H20.2501C20.4417 25.8125 20.6302 25.7656 20.7976 25.6762C20.965 25.5869 21.1058 25.458 21.2066 25.3019L25.2361 19.0639L25.9363 20.145C24.7431 21.1983 23.9964 22.7092 24.0001 24.3873C24.0069 27.4794 26.7141 30.0947 29.9405 30.1247C33.2501 30.1555 35.949 27.6179 35.9993 24.4647C36.0502 21.2779 33.3496 18.6374 30.0239 18.625V18.625ZM14.7539 21.939C15.2099 22.412 15.5355 23.0019 15.6746 23.6562H13.6447L14.7539 21.939ZM12.0001 27.9688C9.93235 27.9688 8.2501 26.3566 8.2501 24.375C8.2501 22.3934 9.93235 20.7812 12.0001 20.7812C12.2752 20.7812 12.5432 20.8106 12.8016 20.8648L10.6686 24.1669C10.2054 24.8838 10.7444 25.8125 11.6251 25.8125H15.436C14.8562 27.0804 13.5347 27.9688 12.0001 27.9688ZM19.6234 23.6562H17.9535C17.7679 22.2297 17.0368 20.9657 15.9668 20.0613L17.1268 18.2656H23.1055L19.6234 23.6562ZM29.7979 27.9636C27.8744 27.8664 26.3269 26.3603 26.2529 24.5157C26.2149 23.5669 26.5638 22.6955 27.1592 22.0331L29.242 25.2489C29.4605 25.5862 29.9229 25.6899 30.2748 25.4805L30.912 25.1015C31.2639 24.8922 31.3722 24.4491 31.1537 24.1118L29.0693 20.8935C29.3734 20.8188 29.6861 20.7811 30.0001 20.7813C32.0679 20.7813 33.7501 22.3935 33.7501 24.375C33.7501 26.4208 31.957 28.0728 29.7979 27.9636V27.9636Z" fill="white"/>
</g>
</g>
<defs>
<clipPath id="clip0">
<rect width="213.7" height="42.8" fill="white"/>
</clipPath>
<clipPath id="clip1">
<rect width="30" height="23" fill="white" transform="translate(6 10)"/>
</clipPath>
</defs>
</svg>
