<svg class="header-main-logo"  width="214" height="43" viewBox="0 0 214 43" fill="none" xmlns="http://www.w3.org/2000/svg">
<g clip-path="url(#clip0)">
    <path d="M92.9988 24.2854V31.8H88.6043V10.4719H96.9246C98.5262 10.4719 99.9324 10.7648 101.143 11.3508C102.364 11.9367 103.302 12.7717 103.956 13.8557C104.61 14.9299 104.937 16.1555 104.937 17.5324C104.937 19.6223 104.22 21.2727 102.784 22.4836C101.358 23.6848 99.3807 24.2854 96.8514 24.2854H92.9988ZM92.9988 20.7258H96.9246C98.0867 20.7258 98.9705 20.4523 99.576 19.9055C100.191 19.3586 100.499 18.5773 100.499 17.5617C100.499 16.5168 100.191 15.6721 99.576 15.0275C98.9607 14.383 98.1111 14.051 97.0271 14.0314H92.9988V20.7258ZM106.827 23.7287C106.827 22.1564 107.13 20.7551 107.735 19.5246C108.341 18.2941 109.21 17.342 110.343 16.6682C111.485 15.9943 112.808 15.6574 114.312 15.6574C116.451 15.6574 118.194 16.3117 119.542 17.6203C120.899 18.9289 121.656 20.7063 121.812 22.9523L121.842 24.0363C121.842 26.468 121.163 28.4211 119.805 29.8957C118.448 31.3605 116.627 32.093 114.342 32.093C112.056 32.093 110.23 31.3605 108.863 29.8957C107.506 28.4309 106.827 26.4387 106.827 23.9191V23.7287ZM111.06 24.0363C111.06 25.5402 111.344 26.6926 111.91 27.4934C112.476 28.2844 113.287 28.6799 114.342 28.6799C115.367 28.6799 116.168 28.2893 116.744 27.508C117.32 26.717 117.608 25.4572 117.608 23.7287C117.608 22.2541 117.32 21.1115 116.744 20.301C116.168 19.4904 115.357 19.0852 114.312 19.0852C113.277 19.0852 112.476 19.4904 111.91 20.301C111.344 21.1018 111.06 22.3469 111.06 24.0363ZM123.834 23.758C123.834 21.3264 124.41 19.3684 125.562 17.884C126.724 16.3996 128.287 15.6574 130.25 15.6574C131.988 15.6574 133.341 16.2531 134.307 17.4445L134.483 15.9504H138.321V31.2727C138.321 32.6594 138.004 33.8654 137.369 34.8908C136.744 35.9162 135.86 36.6975 134.718 37.2346C133.575 37.7717 132.237 38.0402 130.704 38.0402C129.542 38.0402 128.409 37.8059 127.305 37.3371C126.202 36.8781 125.367 36.2824 124.801 35.55L126.676 32.9719C127.73 34.1535 129.01 34.7443 130.513 34.7443C131.637 34.7443 132.511 34.4416 133.136 33.8361C133.761 33.2404 134.073 32.3908 134.073 31.2873V30.4377C133.096 31.5412 131.812 32.093 130.221 32.093C128.316 32.093 126.773 31.3508 125.592 29.8664C124.42 28.3723 123.834 26.3947 123.834 23.9338V23.758ZM128.067 24.0656C128.067 25.5012 128.355 26.6291 128.931 27.4494C129.508 28.26 130.299 28.6652 131.304 28.6652C132.594 28.6652 133.516 28.1818 134.073 27.215V20.55C133.507 19.5832 132.594 19.0998 131.334 19.0998C130.318 19.0998 129.517 19.5148 128.931 20.3449C128.355 21.175 128.067 22.4152 128.067 24.0656ZM140.929 23.7287C140.929 22.1564 141.231 20.7551 141.837 19.5246C142.442 18.2941 143.311 17.342 144.444 16.6682C145.587 15.9943 146.91 15.6574 148.414 15.6574C150.553 15.6574 152.296 16.3117 153.643 17.6203C155.001 18.9289 155.758 20.7063 155.914 22.9523L155.943 24.0363C155.943 26.468 155.264 28.4211 153.907 29.8957C152.55 31.3605 150.728 32.093 148.443 32.093C146.158 32.093 144.332 31.3605 142.965 29.8957C141.607 28.4309 140.929 26.4387 140.929 23.9191V23.7287ZM145.162 24.0363C145.162 25.5402 145.445 26.6926 146.012 27.4934C146.578 28.2844 147.388 28.6799 148.443 28.6799C149.469 28.6799 150.269 28.2893 150.846 27.508C151.422 26.717 151.71 25.4572 151.71 23.7287C151.71 22.2541 151.422 21.1115 150.846 20.301C150.269 19.4904 149.459 19.0852 148.414 19.0852C147.379 19.0852 146.578 19.4904 146.012 20.301C145.445 21.1018 145.162 22.3469 145.162 24.0363ZM157.891 23.758C157.891 21.2873 158.443 19.3195 159.547 17.8547C160.66 16.3898 162.179 15.6574 164.102 15.6574C165.645 15.6574 166.92 16.2336 167.926 17.3859V9.3H172.174V31.8H168.35L168.145 30.1154C167.091 31.4338 165.733 32.093 164.073 32.093C162.208 32.093 160.709 31.3605 159.576 29.8957C158.453 28.4211 157.891 26.3752 157.891 23.758ZM162.125 24.0656C162.125 25.55 162.384 26.6877 162.901 27.4787C163.419 28.2697 164.171 28.6652 165.157 28.6652C166.466 28.6652 167.388 28.1135 167.926 27.01V20.7551C167.398 19.6516 166.485 19.0998 165.186 19.0998C163.145 19.0998 162.125 20.7551 162.125 24.0656ZM184.947 30.1887C183.902 31.4582 182.457 32.093 180.611 32.093C178.912 32.093 177.613 31.6047 176.715 30.6281C175.826 29.6516 175.372 28.2209 175.352 26.3361V15.9504H179.586V26.1897C179.586 27.84 180.338 28.6652 181.842 28.6652C183.277 28.6652 184.263 28.1672 184.801 27.1711V15.9504H189.049V31.8H185.064L184.947 30.1887ZM200.826 27.4201C200.826 26.9025 200.567 26.4973 200.05 26.2043C199.542 25.9016 198.721 25.633 197.589 25.3986C193.819 24.6076 191.934 23.0061 191.934 20.5939C191.934 19.1877 192.515 18.0158 193.678 17.0783C194.849 16.1311 196.378 15.6574 198.262 15.6574C200.274 15.6574 201.881 16.1311 203.082 17.0783C204.293 18.0256 204.898 19.2561 204.898 20.7697H200.665C200.665 20.1643 200.47 19.6662 200.079 19.2756C199.688 18.8752 199.078 18.675 198.248 18.675C197.535 18.675 196.983 18.8361 196.593 19.1584C196.202 19.4807 196.007 19.8908 196.007 20.3889C196.007 20.8576 196.226 21.2385 196.666 21.5314C197.115 21.8147 197.867 22.0637 198.922 22.2785C199.976 22.4836 200.865 22.718 201.588 22.9816C203.824 23.802 204.942 25.2229 204.942 27.2443C204.942 28.6897 204.322 29.8615 203.082 30.76C201.842 31.6486 200.24 32.093 198.277 32.093C196.949 32.093 195.767 31.8586 194.732 31.3898C193.707 30.9113 192.901 30.2619 192.315 29.4416C191.729 28.6115 191.436 27.718 191.436 26.7609H195.45C195.489 27.5129 195.767 28.0891 196.285 28.4895C196.803 28.8898 197.496 29.09 198.365 29.09C199.176 29.09 199.786 28.9387 200.196 28.6359C200.616 28.3234 200.826 27.9182 200.826 27.4201Z" fill="#003EFF"/>
    <path d="M24.8194 33.664L22.3079 34.2021C22.3079 34.2021 21.9718 34.2672 22.1569 33.9681C22.6644 33.1477 24.2375 30.7185 24.2375 30.7185C24.4913 30.3222 24.3758 29.7951 23.9795 29.5414C23.5833 29.2876 23.0562 29.4031 22.8024 29.7994L19.6672 34.6958C19.4121 35.0941 19.4026 35.5381 19.6418 35.8832C19.8812 36.2284 20.3 36.3753 20.7625 36.2761C20.7625 36.2761 22.9359 35.8073 23.6612 35.6551C23.8229 35.6211 23.753 35.8369 23.753 35.8369L21.7501 39.7601C21.5361 40.1792 21.7024 40.6925 22.1217 40.9065C22.2459 40.9699 22.3781 40.9999 22.5084 40.9999C22.8185 40.9999 23.1174 40.8301 23.2681 40.5351L25.9948 35.1941C26.2013 34.7893 26.1761 34.354 25.9269 34.0297C25.6778 33.7055 25.2635 33.5688 24.8194 33.664Z" fill="#F2C94C"/>
    <path d="M12.2005 30.2387C11.8189 29.9635 11.2863 30.0496 11.0109 30.4314L8.89685 33.3628C8.62155 33.7444 8.7079 34.2771 9.08955 34.5524C9.24032 34.6611 9.4145 34.7134 9.58732 34.7134C9.85183 34.7134 10.1126 34.5906 10.2792 34.3596L12.3931 31.4282C12.6685 31.0465 12.5821 30.514 12.2005 30.2387Z" fill="#003EFF"/>
    <path d="M16.2191 35.0045C15.8376 34.7294 15.3049 34.8155 15.0295 35.1972L12.9156 38.1286C12.6403 38.5102 12.7267 39.0429 13.1083 39.3182C13.2591 39.4269 13.4333 39.4792 13.6061 39.4792C13.8706 39.4792 14.1313 39.3564 14.2979 39.1254L16.4118 36.194C16.6871 35.8123 16.6008 35.2798 16.2191 35.0045Z" fill="#003EFF"/>
    <path d="M31.3665 30.2387C30.9848 29.9635 30.4522 30.0496 30.1769 30.4314L28.063 33.3628C27.7877 33.7444 27.874 34.2771 28.2557 34.5524C28.4065 34.6611 28.5806 34.7134 28.7535 34.7134C29.018 34.7134 29.2787 34.5906 29.4453 34.3596L31.5593 31.4282C31.8345 31.0465 31.7483 30.514 31.3665 30.2387Z" fill="#003EFF"/>
    <path d="M35.3851 35.0045C35.0036 34.7294 34.4708 34.8155 34.1955 35.1972L32.0816 38.1286C31.8063 38.5102 31.8927 39.0429 32.2743 39.3182C32.4251 39.4269 32.5993 39.4792 32.7721 39.4792C33.0366 39.4792 33.2974 39.3564 33.4639 39.1254L35.5778 36.194C35.8532 35.8123 35.7669 35.2798 35.3851 35.0045Z" fill="#003EFF"/>
    <path d="M36.006 13.4626C36.1952 12.7613 36.2539 12.0399 36.2539 11.3298C36.2539 6.18531 32.0686 2 26.9242 2C22.8704 2 19.3309 4.56509 18.0657 8.40056C18.0489 8.45169 18.035 8.5477 17.9315 8.55838C17.9154 8.56009 17.8422 8.56895 17.8254 8.56781C17.7303 8.56156 17.6255 8.55554 17.5147 8.55554C14.5141 8.55554 11.8304 10.4502 10.7307 13.3063C10.7071 13.3677 10.6212 13.4747 10.3573 13.4376C9.98796 13.3856 9.61495 13.351 9.24182 13.351C5.25648 13.351 2.0141 16.5935 2.0141 20.5789C2.0141 24.5644 5.25648 27.8069 9.24182 27.8069H33.7587C37.7441 27.8069 40.9866 24.5644 40.9866 20.5789C40.9866 17.5051 39.0073 14.7506 36.1284 13.7507C36.0694 13.7304 35.949 13.6737 36.006 13.4626ZM33.7587 26.1027H9.24182C6.19612 26.1027 3.7184 23.6248 3.7184 20.5791C3.7184 17.5334 6.19623 15.0554 9.24182 15.0554C9.61551 15.0554 9.99001 15.0935 10.3546 15.1686C10.4913 15.1968 10.6289 15.2111 10.7635 15.2111C11.4652 15.2111 12.0127 14.8252 12.228 14.1789C13.009 11.8348 15.1336 10.2598 17.5148 10.2598C17.5874 10.2598 17.6711 10.2655 17.7595 10.2715C17.8579 10.2783 17.9694 10.2857 18.0866 10.2868L18.1113 10.2869C18.7076 10.2869 19.4568 10.0788 19.64 9.08808C19.6425 9.07467 19.6447 9.06161 19.6473 9.04922C20.6479 5.85184 23.5708 3.7043 26.9242 3.7043C31.1289 3.7043 34.5496 7.12506 34.5496 11.3298C34.5496 12.0515 34.4438 12.7819 34.2351 13.5007C34.0862 14.0134 34.2004 14.3821 34.3224 14.6012C34.5867 15.0759 35.0605 15.2081 35.2629 15.2646L35.2921 15.2729C37.6415 15.9502 39.2823 18.1322 39.2823 20.5792C39.2823 23.6249 36.8045 26.1027 33.7587 26.1027Z" fill="#003EFF"/>
</g>
<defs>
    <clipPath id="clip0">
        <rect width="213.7" height="42.8" fill="white"/>
    </clipPath>
</defs>
</svg>
